<mxfile host="app.diagrams.net" modified="2022-12-05T15:19:01.990Z" agent="5.0 (Windows NT 10.0; Win64; x64) AppleWebKit/537.36 (KHTML, like Gecko) Chrome/108.0.0.0 Safari/537.36" version="20.6.0" etag="M7Jg3Jbw8QkjHwiQ837v" type="github">
  <diagram id="DBHRtnx8D4ETLxRpG5bM" name="Page-1">
    <mxGraphModel dx="869" dy="476" grid="1" gridSize="10" guides="1" tooltips="1" connect="1" arrows="1" fold="1" page="1" pageScale="1" pageWidth="827" pageHeight="1169" math="0" shadow="0">
      <root>
        <mxCell id="0" />
        <mxCell id="1" parent="0" />
        <mxCell id="8SG6atrZ2Jzy-Dtnsj9r-56" value="" style="group" vertex="1" connectable="0" parent="1">
          <mxGeometry x="31" y="170" width="765" height="310" as="geometry" />
        </mxCell>
        <mxCell id="8SG6atrZ2Jzy-Dtnsj9r-41" value="" style="rounded=1;whiteSpace=wrap;html=1;shadow=0;glass=0;sketch=0;strokeColor=#d79b00;fillColor=#ffe6cc;rotation=90;" vertex="1" parent="8SG6atrZ2Jzy-Dtnsj9r-56">
          <mxGeometry x="110.69585253456222" y="205.65853658536585" width="84.60829493087557" height="45.36585365853658" as="geometry" />
        </mxCell>
        <mxCell id="8SG6atrZ2Jzy-Dtnsj9r-44" value="" style="endArrow=classic;html=1;rounded=0;fontColor=#000000;entryX=0.5;entryY=1;entryDx=0;entryDy=0;exitX=0.5;exitY=1;exitDx=0;exitDy=0;" edge="1" parent="8SG6atrZ2Jzy-Dtnsj9r-56">
          <mxGeometry width="50" height="50" relative="1" as="geometry">
            <mxPoint x="143.83410138248848" y="226.82926829268288" as="sourcePoint" />
            <mxPoint x="159.34562211981566" y="244.21951219512195" as="targetPoint" />
          </mxGeometry>
        </mxCell>
        <mxCell id="8SG6atrZ2Jzy-Dtnsj9r-58" style="edgeStyle=orthogonalEdgeStyle;rounded=0;orthogonalLoop=1;jettySize=auto;html=1;exitX=1;exitY=0.5;exitDx=0;exitDy=0;entryX=0;entryY=0.5;entryDx=0;entryDy=0;fontColor=#FFFFFF;" edge="1" parent="8SG6atrZ2Jzy-Dtnsj9r-56" source="8SG6atrZ2Jzy-Dtnsj9r-1" target="8SG6atrZ2Jzy-Dtnsj9r-20">
          <mxGeometry relative="1" as="geometry" />
        </mxCell>
        <mxCell id="8SG6atrZ2Jzy-Dtnsj9r-1" value="Text&lt;br&gt;input" style="ellipse;whiteSpace=wrap;html=1;aspect=fixed;fillColor=#66B2FF;strokeColor=#6c8ebf;fontColor=#FFFFFF;" vertex="1" parent="8SG6atrZ2Jzy-Dtnsj9r-56">
          <mxGeometry x="10.576036866359447" y="51.47634146341463" width="55.836734693877546" height="55.836734693877546" as="geometry" />
        </mxCell>
        <mxCell id="8SG6atrZ2Jzy-Dtnsj9r-2" value="b x N x seq_len" style="text;html=1;strokeColor=none;fillColor=none;align=center;verticalAlign=middle;whiteSpace=wrap;rounded=0;fontColor=#66B2FF;" vertex="1" parent="8SG6atrZ2Jzy-Dtnsj9r-56">
          <mxGeometry y="22.68292682926829" width="77.55760368663596" height="22.68292682926829" as="geometry" />
        </mxCell>
        <mxCell id="8SG6atrZ2Jzy-Dtnsj9r-19" value="" style="group;fontStyle=4" vertex="1" connectable="0" parent="8SG6atrZ2Jzy-Dtnsj9r-56">
          <mxGeometry x="179.7926267281106" width="133.963133640553" height="166.34146341463415" as="geometry" />
        </mxCell>
        <mxCell id="8SG6atrZ2Jzy-Dtnsj9r-15" value="" style="group;fontStyle=0" vertex="1" connectable="0" parent="8SG6atrZ2Jzy-Dtnsj9r-19">
          <mxGeometry x="5.718110599078351" width="73.16502304147465" height="103.58536585365853" as="geometry" />
        </mxCell>
        <mxCell id="8SG6atrZ2Jzy-Dtnsj9r-16" value="" style="rounded=1;whiteSpace=wrap;html=1;shadow=0;glass=0;sketch=0;fontColor=#FFFFFF;fillColor=none;rotation=-90;strokeColor=#66B2FF;fontStyle=0" vertex="1" parent="8SG6atrZ2Jzy-Dtnsj9r-15">
          <mxGeometry x="-22.266082949308757" y="14.910243902439023" width="95.43110599078341" height="74.06731707317071" as="geometry" />
        </mxCell>
        <mxCell id="8SG6atrZ2Jzy-Dtnsj9r-21" value="" style="group;fontStyle=0" vertex="1" connectable="0" parent="8SG6atrZ2Jzy-Dtnsj9r-15">
          <mxGeometry x="-2.5383395029085185" y="5.292682926829268" width="64.58442245221728" height="91.48756183800988" as="geometry" />
        </mxCell>
        <mxCell id="8SG6atrZ2Jzy-Dtnsj9r-3" value="" style="rounded=1;whiteSpace=wrap;html=1;fillColor=#ffe6cc;rotation=-90;strokeColor=#d79b00;glass=0;sketch=0;shadow=0;container=0;fontStyle=0" vertex="1" parent="8SG6atrZ2Jzy-Dtnsj9r-21">
          <mxGeometry x="-9.489310266676737" y="11.688524590163935" width="40.092165898617516" height="22.641610022657602" as="geometry" />
        </mxCell>
        <mxCell id="8SG6atrZ2Jzy-Dtnsj9r-10" value="" style="endArrow=classic;html=1;rounded=0;fontColor=#FFFFFF;entryX=0.75;entryY=0;entryDx=0;entryDy=0;fontStyle=0" edge="1" parent="8SG6atrZ2Jzy-Dtnsj9r-21">
          <mxGeometry width="50" height="50" relative="1" as="geometry">
            <mxPoint x="8.552164387701147" y="26.40557110489138" as="sourcePoint" />
            <mxPoint x="20.579814157286403" y="46.216979874716785" as="targetPoint" />
          </mxGeometry>
        </mxCell>
        <mxCell id="8SG6atrZ2Jzy-Dtnsj9r-9" value="" style="endArrow=classic;html=1;rounded=0;fontColor=#FFFFFF;entryX=0.75;entryY=0;entryDx=0;entryDy=0;fontStyle=0" edge="1" parent="8SG6atrZ2Jzy-Dtnsj9r-21">
          <mxGeometry width="50" height="50" relative="1" as="geometry">
            <mxPoint x="20.980735816272578" y="33.7640943622551" as="sourcePoint" />
            <mxPoint x="8.953086046687321" y="13.952685592429695" as="targetPoint" />
          </mxGeometry>
        </mxCell>
        <mxCell id="8SG6atrZ2Jzy-Dtnsj9r-4" value="" style="rounded=1;whiteSpace=wrap;html=1;fillColor=#ffe6cc;rotation=-90;strokeColor=#d79b00;container=0;fontStyle=0" vertex="1" parent="8SG6atrZ2Jzy-Dtnsj9r-21">
          <mxGeometry x="2.538339502908519" y="34.33013461282153" width="40.092165898617516" height="22.641610022657602" as="geometry" />
        </mxCell>
        <mxCell id="8SG6atrZ2Jzy-Dtnsj9r-7" value="" style="endArrow=classic;html=1;rounded=0;fontColor=#FFFFFF;entryX=0.75;entryY=0;entryDx=0;entryDy=0;fontStyle=0" edge="1" parent="8SG6atrZ2Jzy-Dtnsj9r-21">
          <mxGeometry width="50" height="50" relative="1" as="geometry">
            <mxPoint x="18.976127521341702" y="42.820738371318136" as="sourcePoint" />
            <mxPoint x="31.00377729092696" y="62.63214714114354" as="targetPoint" />
          </mxGeometry>
        </mxCell>
        <mxCell id="8SG6atrZ2Jzy-Dtnsj9r-8" value="" style="endArrow=classic;html=1;rounded=0;fontColor=#FFFFFF;entryX=0.75;entryY=0;entryDx=0;entryDy=0;fontStyle=0" edge="1" parent="8SG6atrZ2Jzy-Dtnsj9r-21">
          <mxGeometry width="50" height="50" relative="1" as="geometry">
            <mxPoint x="36.61668051673341" y="59.23590563774491" as="sourcePoint" />
            <mxPoint x="24.589030747148154" y="39.4244968679195" as="targetPoint" />
          </mxGeometry>
        </mxCell>
        <mxCell id="8SG6atrZ2Jzy-Dtnsj9r-5" value="" style="rounded=1;whiteSpace=wrap;html=1;fillColor=#ffe6cc;rotation=-90;strokeColor=#d79b00;container=0;fontStyle=0" vertex="1" parent="8SG6atrZ2Jzy-Dtnsj9r-21">
          <mxGeometry x="15.367832590466126" y="58.66986538717846" width="40.092165898617516" height="22.641610022657602" as="geometry" />
        </mxCell>
        <mxCell id="8SG6atrZ2Jzy-Dtnsj9r-17" value="Bi-LSTM" style="text;html=1;strokeColor=none;fillColor=none;align=center;verticalAlign=middle;whiteSpace=wrap;rounded=0;shadow=0;glass=0;sketch=0;fontColor=#000000;fontStyle=0" vertex="1" parent="8SG6atrZ2Jzy-Dtnsj9r-21">
          <mxGeometry x="22.280274986779492" width="42.304147465437794" height="22.68292682926829" as="geometry" />
        </mxCell>
        <mxCell id="8SG6atrZ2Jzy-Dtnsj9r-18" value="BERT Encoder" style="rounded=1;whiteSpace=wrap;html=1;shadow=0;glass=0;sketch=0;strokeColor=#d79b00;fillColor=#ffe6cc;fontStyle=0" vertex="1" parent="8SG6atrZ2Jzy-Dtnsj9r-19">
          <mxGeometry y="111.90243902439025" width="84.60829493087557" height="45.36585365853658" as="geometry" />
        </mxCell>
        <mxCell id="8SG6atrZ2Jzy-Dtnsj9r-22" value="" style="rounded=1;whiteSpace=wrap;html=1;shadow=0;glass=0;sketch=0;strokeColor=#66B2FF;fontColor=#FFFFFF;fillColor=none;fontStyle=0" vertex="1" parent="8SG6atrZ2Jzy-Dtnsj9r-19">
          <mxGeometry x="-21.152073732718893" y="-7.560975609756098" width="148.06451612903228" height="173.90243902439025" as="geometry" />
        </mxCell>
        <mxCell id="8SG6atrZ2Jzy-Dtnsj9r-23" value="Sentence Encoder" style="text;html=1;strokeColor=none;fillColor=none;align=center;verticalAlign=middle;whiteSpace=wrap;rounded=0;shadow=0;glass=0;sketch=0;fontColor=#000000;" vertex="1" parent="8SG6atrZ2Jzy-Dtnsj9r-19">
          <mxGeometry x="78.883133640553" y="71.82926829268293" width="42.30414746543779" height="22.68292682926829" as="geometry" />
        </mxCell>
        <mxCell id="8SG6atrZ2Jzy-Dtnsj9r-34" style="edgeStyle=orthogonalEdgeStyle;rounded=0;orthogonalLoop=1;jettySize=auto;html=1;fontColor=#000000;" edge="1" parent="8SG6atrZ2Jzy-Dtnsj9r-56" source="8SG6atrZ2Jzy-Dtnsj9r-20" target="8SG6atrZ2Jzy-Dtnsj9r-22">
          <mxGeometry relative="1" as="geometry" />
        </mxCell>
        <mxCell id="8SG6atrZ2Jzy-Dtnsj9r-20" value="Resize" style="rhombus;whiteSpace=wrap;html=1;shadow=0;glass=0;sketch=0;strokeColor=#82b366;fillColor=#d5e8d4;fontColor=#FFFFFF;" vertex="1" parent="8SG6atrZ2Jzy-Dtnsj9r-56">
          <mxGeometry x="81.08294930875576" y="49.14634146341463" width="56.40552995391705" height="60.487804878048784" as="geometry" />
        </mxCell>
        <mxCell id="8SG6atrZ2Jzy-Dtnsj9r-26" value="bN x seq_len" style="text;html=1;strokeColor=none;fillColor=none;align=center;verticalAlign=middle;whiteSpace=wrap;rounded=0;fontColor=#66B2FF;" vertex="1" parent="8SG6atrZ2Jzy-Dtnsj9r-56">
          <mxGeometry x="70.50691244239631" y="113.41463414634144" width="77.55760368663596" height="22.68292682926829" as="geometry" />
        </mxCell>
        <mxCell id="8SG6atrZ2Jzy-Dtnsj9r-28" value="Self-Attention + Global Average Pooling" style="rounded=1;whiteSpace=wrap;html=1;shadow=0;glass=0;sketch=0;strokeColor=#d79b00;fillColor=#ffe6cc;" vertex="1" parent="8SG6atrZ2Jzy-Dtnsj9r-56">
          <mxGeometry x="405.4147465437788" y="60.487804878048784" width="98.70967741935485" height="37.80487804878048" as="geometry" />
        </mxCell>
        <mxCell id="8SG6atrZ2Jzy-Dtnsj9r-33" style="edgeStyle=orthogonalEdgeStyle;rounded=0;orthogonalLoop=1;jettySize=auto;html=1;fontColor=#000000;" edge="1" parent="8SG6atrZ2Jzy-Dtnsj9r-56" source="8SG6atrZ2Jzy-Dtnsj9r-29" target="8SG6atrZ2Jzy-Dtnsj9r-28">
          <mxGeometry relative="1" as="geometry" />
        </mxCell>
        <mxCell id="8SG6atrZ2Jzy-Dtnsj9r-29" value="Resize" style="rhombus;whiteSpace=wrap;html=1;shadow=0;glass=0;sketch=0;strokeColor=#82b366;fillColor=#d5e8d4;fontColor=#FFFFFF;" vertex="1" parent="8SG6atrZ2Jzy-Dtnsj9r-56">
          <mxGeometry x="327.8571428571429" y="49.14634146341463" width="56.40552995391705" height="60.487804878048784" as="geometry" />
        </mxCell>
        <mxCell id="8SG6atrZ2Jzy-Dtnsj9r-30" value="bN x hidden_dim" style="text;html=1;strokeColor=none;fillColor=none;align=center;verticalAlign=middle;whiteSpace=wrap;rounded=0;fontColor=#66B2FF;" vertex="1" parent="8SG6atrZ2Jzy-Dtnsj9r-56">
          <mxGeometry x="299.6543778801843" y="151.21951219512192" width="77.55760368663596" height="22.68292682926829" as="geometry" />
        </mxCell>
        <mxCell id="8SG6atrZ2Jzy-Dtnsj9r-31" value="b x N x hidden_dim" style="text;html=1;strokeColor=none;fillColor=none;align=center;verticalAlign=middle;whiteSpace=wrap;rounded=0;fontColor=#66B2FF;" vertex="1" parent="8SG6atrZ2Jzy-Dtnsj9r-56">
          <mxGeometry x="320.80645161290323" y="22.68292682926829" width="77.55760368663596" height="22.68292682926829" as="geometry" />
        </mxCell>
        <mxCell id="8SG6atrZ2Jzy-Dtnsj9r-32" style="edgeStyle=orthogonalEdgeStyle;rounded=0;orthogonalLoop=1;jettySize=auto;html=1;exitX=1;exitY=0.5;exitDx=0;exitDy=0;entryX=0;entryY=0.5;entryDx=0;entryDy=0;fontColor=#000000;" edge="1" parent="8SG6atrZ2Jzy-Dtnsj9r-56" source="8SG6atrZ2Jzy-Dtnsj9r-22" target="8SG6atrZ2Jzy-Dtnsj9r-29">
          <mxGeometry relative="1" as="geometry" />
        </mxCell>
        <mxCell id="8SG6atrZ2Jzy-Dtnsj9r-35" style="edgeStyle=orthogonalEdgeStyle;rounded=0;orthogonalLoop=1;jettySize=auto;html=1;exitX=0.5;exitY=1;exitDx=0;exitDy=0;fontColor=#000000;" edge="1" parent="8SG6atrZ2Jzy-Dtnsj9r-56" source="8SG6atrZ2Jzy-Dtnsj9r-26" target="8SG6atrZ2Jzy-Dtnsj9r-26">
          <mxGeometry relative="1" as="geometry" />
        </mxCell>
        <mxCell id="8SG6atrZ2Jzy-Dtnsj9r-36" value="b x hidden_dim" style="text;html=1;strokeColor=none;fillColor=none;align=center;verticalAlign=middle;whiteSpace=wrap;rounded=0;fontColor=#66B2FF;" vertex="1" parent="8SG6atrZ2Jzy-Dtnsj9r-56">
          <mxGeometry x="415.9907834101383" y="105.85365853658537" width="77.55760368663596" height="22.68292682926829" as="geometry" />
        </mxCell>
        <mxCell id="8SG6atrZ2Jzy-Dtnsj9r-37" value="Element wise&lt;br&gt;multiplication" style="ellipse;whiteSpace=wrap;html=1;aspect=fixed;shadow=0;glass=0;sketch=0;strokeColor=#66B2FF;fontColor=#000000;fillColor=none;" vertex="1" parent="8SG6atrZ2Jzy-Dtnsj9r-56">
          <mxGeometry x="539.3778801843318" y="143.65853658536585" width="55.836734693877546" height="55.836734693877546" as="geometry" />
        </mxCell>
        <mxCell id="8SG6atrZ2Jzy-Dtnsj9r-39" value="" style="endArrow=classic;html=1;rounded=0;fontColor=#000000;exitX=1;exitY=0.5;exitDx=0;exitDy=0;entryX=0;entryY=0;entryDx=0;entryDy=0;" edge="1" parent="8SG6atrZ2Jzy-Dtnsj9r-56" source="8SG6atrZ2Jzy-Dtnsj9r-28" target="8SG6atrZ2Jzy-Dtnsj9r-37">
          <mxGeometry width="50" height="50" relative="1" as="geometry">
            <mxPoint x="490.0230414746544" y="181.46341463414632" as="sourcePoint" />
            <mxPoint x="525.2764976958525" y="143.65853658536585" as="targetPoint" />
          </mxGeometry>
        </mxCell>
        <mxCell id="8SG6atrZ2Jzy-Dtnsj9r-40" value="Autoregressive&lt;br&gt;Input" style="ellipse;whiteSpace=wrap;html=1;aspect=fixed;fillColor=#66B2FF;strokeColor=#6c8ebf;fontColor=#FFFFFF;" vertex="1" parent="8SG6atrZ2Jzy-Dtnsj9r-56">
          <mxGeometry x="10.576036866359447" y="214.03731707317075" width="55.836734693877546" height="55.836734693877546" as="geometry" />
        </mxCell>
        <mxCell id="8SG6atrZ2Jzy-Dtnsj9r-42" value="" style="rounded=1;whiteSpace=wrap;html=1;shadow=0;glass=0;sketch=0;strokeColor=#d79b00;fillColor=#ffe6cc;rotation=90;" vertex="1" parent="8SG6atrZ2Jzy-Dtnsj9r-56">
          <mxGeometry x="126.2073732718894" y="223.04878048780486" width="84.60829493087557" height="45.36585365853658" as="geometry" />
        </mxCell>
        <mxCell id="8SG6atrZ2Jzy-Dtnsj9r-45" value="" style="endArrow=classic;html=1;rounded=0;fontColor=#000000;entryX=0.5;entryY=1;entryDx=0;entryDy=0;exitX=0.5;exitY=1;exitDx=0;exitDy=0;" edge="1" parent="8SG6atrZ2Jzy-Dtnsj9r-56">
          <mxGeometry width="50" height="50" relative="1" as="geometry">
            <mxPoint x="157.2304147465438" y="240.43902439024387" as="sourcePoint" />
            <mxPoint x="172.74193548387098" y="257.8292682926829" as="targetPoint" />
          </mxGeometry>
        </mxCell>
        <mxCell id="8SG6atrZ2Jzy-Dtnsj9r-43" value="" style="rounded=1;whiteSpace=wrap;html=1;shadow=0;glass=0;sketch=0;strokeColor=#d79b00;fillColor=#ffe6cc;rotation=90;" vertex="1" parent="8SG6atrZ2Jzy-Dtnsj9r-56">
          <mxGeometry x="143.1290322580645" y="240.43902439024387" width="84.60829493087557" height="45.36585365853658" as="geometry" />
        </mxCell>
        <mxCell id="8SG6atrZ2Jzy-Dtnsj9r-46" value="" style="rounded=1;whiteSpace=wrap;html=1;shadow=0;glass=0;sketch=0;strokeColor=#66B2FF;fontColor=#000000;fillColor=none;" vertex="1" parent="8SG6atrZ2Jzy-Dtnsj9r-56">
          <mxGeometry x="126.2073732718894" y="173.90243902439025" width="117.04147465437788" height="136.09756097560975" as="geometry" />
        </mxCell>
        <mxCell id="8SG6atrZ2Jzy-Dtnsj9r-47" value="" style="endArrow=classic;html=1;rounded=0;fontColor=#000000;exitX=1;exitY=0.5;exitDx=0;exitDy=0;entryX=0;entryY=0.5;entryDx=0;entryDy=0;" edge="1" parent="8SG6atrZ2Jzy-Dtnsj9r-56" source="8SG6atrZ2Jzy-Dtnsj9r-40" target="8SG6atrZ2Jzy-Dtnsj9r-46">
          <mxGeometry width="50" height="50" relative="1" as="geometry">
            <mxPoint x="179.7926267281106" y="234.390243902439" as="sourcePoint" />
            <mxPoint x="215.04608294930878" y="196.58536585365852" as="targetPoint" />
          </mxGeometry>
        </mxCell>
        <mxCell id="8SG6atrZ2Jzy-Dtnsj9r-48" value="b x 1 x num_autoreg_feats" style="text;html=1;strokeColor=none;fillColor=none;align=center;verticalAlign=middle;whiteSpace=wrap;rounded=0;fontColor=#66B2FF;" vertex="1" parent="8SG6atrZ2Jzy-Dtnsj9r-56">
          <mxGeometry x="10.576036866359447" y="287.3170731707317" width="112.8110599078341" height="22.68292682926829" as="geometry" />
        </mxCell>
        <mxCell id="8SG6atrZ2Jzy-Dtnsj9r-49" value="LSTM" style="text;html=1;strokeColor=none;fillColor=none;align=center;verticalAlign=middle;whiteSpace=wrap;rounded=0;shadow=0;glass=0;sketch=0;fontColor=#000000;" vertex="1" parent="8SG6atrZ2Jzy-Dtnsj9r-56">
          <mxGeometry x="195.3041474654378" y="189.02439024390242" width="42.30414746543779" height="22.68292682926829" as="geometry" />
        </mxCell>
        <mxCell id="8SG6atrZ2Jzy-Dtnsj9r-50" value="" style="endArrow=classic;html=1;rounded=0;fontColor=#000000;exitX=1;exitY=0.5;exitDx=0;exitDy=0;entryX=0;entryY=1;entryDx=0;entryDy=0;" edge="1" parent="8SG6atrZ2Jzy-Dtnsj9r-56" source="8SG6atrZ2Jzy-Dtnsj9r-46" target="8SG6atrZ2Jzy-Dtnsj9r-37">
          <mxGeometry width="50" height="50" relative="1" as="geometry">
            <mxPoint x="264.4009216589862" y="204.14634146341461" as="sourcePoint" />
            <mxPoint x="299.6543778801843" y="166.34146341463415" as="targetPoint" />
          </mxGeometry>
        </mxCell>
        <mxCell id="8SG6atrZ2Jzy-Dtnsj9r-51" value="b x hidden_dim" style="text;html=1;strokeColor=none;fillColor=none;align=center;verticalAlign=middle;whiteSpace=wrap;rounded=0;fontColor=#66B2FF;" vertex="1" parent="8SG6atrZ2Jzy-Dtnsj9r-56">
          <mxGeometry x="313.75576036866363" y="245.73170731707316" width="112.8110599078341" height="22.68292682926829" as="geometry" />
        </mxCell>
        <mxCell id="8SG6atrZ2Jzy-Dtnsj9r-52" value="b x hidden_dim" style="text;html=1;strokeColor=none;fillColor=none;align=center;verticalAlign=middle;whiteSpace=wrap;rounded=0;fontColor=#66B2FF;" vertex="1" parent="8SG6atrZ2Jzy-Dtnsj9r-56">
          <mxGeometry x="546.4285714285714" y="211.70731707317074" width="112.8110599078341" height="22.68292682926829" as="geometry" />
        </mxCell>
        <mxCell id="8SG6atrZ2Jzy-Dtnsj9r-53" value="Dense" style="rounded=1;whiteSpace=wrap;html=1;shadow=0;glass=0;sketch=0;strokeColor=#82b366;fillColor=#d5e8d4;fontColor=#FFFFFF;" vertex="1" parent="8SG6atrZ2Jzy-Dtnsj9r-56">
          <mxGeometry x="638.0875576036867" y="148.8895121951219" width="84.60829493087557" height="45.36585365853658" as="geometry" />
        </mxCell>
        <mxCell id="8SG6atrZ2Jzy-Dtnsj9r-54" style="edgeStyle=orthogonalEdgeStyle;rounded=0;orthogonalLoop=1;jettySize=auto;html=1;exitX=1;exitY=0.5;exitDx=0;exitDy=0;fontColor=#FFFFFF;" edge="1" parent="8SG6atrZ2Jzy-Dtnsj9r-56" source="8SG6atrZ2Jzy-Dtnsj9r-37" target="8SG6atrZ2Jzy-Dtnsj9r-53">
          <mxGeometry relative="1" as="geometry" />
        </mxCell>
        <mxCell id="8SG6atrZ2Jzy-Dtnsj9r-57" style="edgeStyle=orthogonalEdgeStyle;rounded=0;orthogonalLoop=1;jettySize=auto;html=1;exitX=1;exitY=0.5;exitDx=0;exitDy=0;fontColor=#FFFFFF;" edge="1" parent="1" source="8SG6atrZ2Jzy-Dtnsj9r-53">
          <mxGeometry relative="1" as="geometry">
            <mxPoint x="790" y="342" as="targetPoint" />
          </mxGeometry>
        </mxCell>
      </root>
    </mxGraphModel>
  </diagram>
</mxfile>
